# ProBuilder 6.0.9
# https://unity3d.com/unity/features/worldbuilding/probuilder
# 7/10/2026 4:06:12 p. m.

mtllib ./cave_level_1.mtl
o cave level 1

g Pillars (4)
v 51.19102 -53 133.9482
v 37.19102 -53 133.9482
v 51.19102 27 133.9482
v 37.19102 27 133.9482
v 37.19102 -53 132.9482
v 37.19102 27 132.9482
v 51.19102 -53 132.9482
v 51.19102 27 132.9482
v 54.19103 -53 132.9482
v 54.19103 -53 133.9482
v 54.19103 27 132.9482
v 54.19103 27 133.9482
v 51.19102 -53 301.9482
v 51.19102 27 301.9482
v 54.19103 -53 301.9482
v 54.19103 27 301.9482
v 51.19102 -53 298.4482
v 51.19102 27 298.4482
v 54.19103 -53 298.4482
v 54.19103 27 298.4482
v -170.309 -53 298.4482
v -170.309 27 298.4482
v -170.309 -53 301.9482
v -170.309 27 301.9482
v -162.309 -53 298.4482
v -162.309 27 298.4482
v -162.309 -53 301.9482
v -162.309 27 301.9482
v -162.309 -53 99.94823
v -162.309 27 99.94823
v -170.309 -53 99.94823
v -170.309 27 99.94823
v 23.19103 -53 132.4482
v 23.19103 27 132.4482
v 23.19103 -53 131.4482
v 23.19103 27 131.4482
v -170.309 -53 107.4482
v -162.309 -53 107.4482
v -162.309 27 107.4482
v -170.309 27 107.4482
v -45.30898 -53 107.4482
v -45.30898 27 107.4482
v -45.30898 -53 106.4482
v -45.30898 27 106.4482
v -162.309 27 130.4482
v -162.309 -40.5 130.4482
v -170.309 -41 130.4482
v -170.309 27 130.4482
v -162.309 27 150.9482
v -162.309 -40.5 150.9482
v -170.309 -41 150.9482
v -170.309 27 150.9482

vt 14 -79
vt 0 -79
vt 14 1
vt 0 1
vt 1 -79
vt 1 1
vt 0 0
vt 14 0
vt 3.000011 0
vt 3.000011 1
vt 3.000011 -79
vt 164.5 -79
vt 164.5 1
vt 3.000011 -163.5
vt 0 -163.5
vt 3.5 -79
vt 3.5 1
vt 3.000011 -2.5
vt 0 -2.5
vt 213.5 -79
vt 213.5 1
vt 213.5 -2.5
vt 8.000015 -79
vt 8.000015 1
vt 8.000015 -2.5
vt 0 -6.500008
vt 8.000015 -6.500008
vt 7.500008 1
vt 7.500008 -79
vt 117 -79
vt 117 1
vt 117 -7.629395E-06
vt 117 -6.500008
vt 117.1804 1
vt 117.1804 -79
vt 72.91949 -79
vt 72.91949 1
vt 0 -25.00001
vt 0 -24
vt 68.50001 0
vt 68.50001 1
vt 68.50001 -24
vt 68.50001 -25.00001
vt 168 1
vt 191 1
vt 191 -79
vt 168 -66.5
vt 8.503784 -163.9601
vt 7.993347 -188.3977
vt 0 -188.3549
vt 0.4900208 -163.9828
vt 8.000015 -167
vt 8.000015 -190
vt 0 -190
vt 0 -167
vt 23 -67
vt 23 1
vt 147.5 1
vt 147.5 -66.5
vt 0.4900208 -143.6593
vt 8.503784 -143.6367
vt 7.993347 0.9572144
vt 0 -146.5
vt 8.000015 -146.5
vt 43.5 -67
vt 43.5 1

vn 0 0 1
vn -1 0 0
vn 0 0 -1
vn 1 0 0
vn 0 1 0
vn 0 -1 0
vn 0.05547001 0 -0.9984604
vn -0.3428439 0 0.9393924
vn 0.342844 0 -0.9393924
vn 0.02766329 -0.8819257 0.4696854
vn 0 -0.8786245 0.4775133
vn 0.05532657 -0.8852268 0.4618575
vn 0.06237817 -0.9980526 0
vn 0.03107812 -0.9956043 -0.08268392
vn 0 -0.996707 -0.08108803
vn 0.06215624 -0.9945017 -0.08427981

usemtl 1_-_shader_3
f 3/3/1 4/4/1 2/2/1 1/1/1
f 4/6/2 6/4/2 5/2/2 2/5/2
f 6/3/3 8/4/3 7/2/3 5/1/3
f 11/6/4 12/4/4 10/2/4 9/5/4
f 8/7/5 6/8/5 4/3/5 3/4/5
f 1/3/6 2/4/6 5/7/6 7/8/6
f 9/9/6 10/10/6 1/4/6 7/7/6
f 11/4/3 9/2/3 7/11/3 8/10/3
f 15/11/1 16/10/1 14/4/1 13/2/1
f 12/4/5 11/7/5 8/9/5 3/10/5
f 17/12/2 18/13/2 3/4/2 1/2/2
f 19/10/6 17/4/6 1/15/6 10/14/6
f 18/10/5 20/4/5 12/15/5 3/14/5
f 20/4/4 19/2/4 10/12/4 12/13/4
f 23/16/2 24/17/2 22/4/2 21/2/2
f 15/10/6 13/4/6 17/19/6 19/18/6
f 14/10/5 16/4/5 20/19/5 18/18/5
f 16/4/4 15/2/4 19/16/4 20/17/4
f 25/20/3 26/21/3 18/4/3 17/2/3
f 27/4/6 25/19/6 17/22/6 13/21/6
f 26/22/5 28/21/5 14/4/5 18/19/5
f 28/4/1 27/2/1 13/20/1 14/21/1
f 31/23/3 32/24/3 30/4/3 29/2/3
f 23/4/6 21/19/6 25/25/6 27/24/6
f 22/25/5 24/24/5 28/4/5 26/19/5
f 24/4/1 23/2/1 27/23/1 28/24/1
f 35/5/4 36/6/4 34/4/4 33/2/4
f 31/26/6 29/27/6 38/24/6 37/4/6
f 30/26/5 32/27/5 40/24/5 39/4/5
f 32/4/2 31/2/2 37/29/2 40/28/2
f 41/30/1 42/31/1 39/4/1 38/2/1
f 43/32/6 41/31/6 38/4/6 29/26/6
f 42/4/5 44/7/5 30/33/5 39/31/5
f 44/4/7 43/2/7 29/35/7 30/34/7
f 33/36/8 34/37/8 42/4/8 41/2/8
f 35/40/6 33/41/6 41/39/6 43/38/6
f 34/4/5 36/7/5 44/43/5 42/42/5
f 36/4/9 35/2/9 43/36/9 44/37/9
f 38/46/4 39/45/4 45/44/4 46/47/4
f 38/49/11 46/48/10 47/51/12 37/50/10
f 48/52/5 45/55/5 39/54/5 40/53/5
f 48/57/2 40/4/2 37/2/2 47/56/2
f 50/59/4 49/58/4 26/4/4 25/2/4
f 46/47/4 45/44/4 49/58/4 50/59/4
f 46/48/13 50/61/13 51/60/13 47/51/13
f 50/61/16 25/62/14 21/4/15 51/60/14
f 52/64/5 49/63/5 45/55/5 48/52/5
f 22/24/5 26/4/5 49/63/5 52/64/5
f 22/45/2 52/66/2 51/65/2 21/46/2
f 52/66/2 48/57/2 47/56/2 51/65/2

g Pillars (6)
v 51.19102 -53 255.4482
v 39.19102 -53 255.4482
v 51.19102 27 255.4482
v 39.19102 27 255.4482
v 39.19102 -53 254.4482
v 39.19102 27 254.4482
v 51.19102 -53 254.4482
v 51.19102 27 254.4482

vt 12 -79
vt 0 -79
vt 12 1
vt 0 1
vt 1 -79
vt 1 1
vt 0 0
vt 12 0

vn 0 0 1
vn -1 0 0
vn 0 0 -1
vn 1 0 0
vn 0 1 0
vn 0 -1 0

usemtl Gris
f 55/69/17 56/70/17 54/68/17 53/67/17
f 56/72/18 58/70/18 57/68/18 54/71/18
f 58/69/19 60/70/19 59/68/19 57/67/19
f 60/72/20 55/70/20 53/68/20 59/71/20
f 60/73/21 58/74/21 56/69/21 55/70/21
f 53/69/22 54/70/22 57/73/22 59/74/22

g Pillars (12)
v 39.19102 7 255.4482
v 19.19102 7 255.4482
v 39.19102 27 255.4482
v 19.19102 27 255.4482
v 19.19102 7 254.4482
v 19.19102 27 254.4482
v 39.19102 7 254.4482
v 39.19102 27 254.4482

vt 20 -19
vt 0 -19
vt 20 1
vt 0 1
vt 1 -19
vt 1 1
vt 0 0
vt 20 0

vn 0 0 1
vn -1 0 0
vn 0 0 -1
vn 1 0 0
vn 0 1 0
vn 0 -1 0

usemtl Gris
f 63/77/23 64/78/23 62/76/23 61/75/23
f 64/80/24 66/78/24 65/76/24 62/79/24
f 66/77/25 68/78/25 67/76/25 65/75/25
f 68/80/26 63/78/26 61/76/26 67/79/26
f 68/81/27 66/82/27 64/77/27 63/78/27
f 61/77/28 62/78/28 65/81/28 67/82/28

g Pillars (13)
v 39.19102 10.5 133.9482
v 19.19102 10.5 133.9482
v 39.19102 30.5 133.9482
v 19.19102 30.5 133.9482
v 19.19102 10.5 132.9482
v 19.19102 30.5 132.9482
v 39.19102 10.5 132.9482
v 39.19102 30.5 132.9482

vt 20 -19
vt 0 -19
vt 20 1
vt 0 1
vt 1 -19
vt 1 1
vt 0 0
vt 20 0

vn 0 0 1
vn -1 0 0
vn 0 0 -1
vn 1 0 0
vn 0 1 0
vn 0 -1 0

usemtl Gris
f 71/85/29 72/86/29 70/84/29 69/83/29
f 72/88/30 74/86/30 73/84/30 70/87/30
f 74/85/31 76/86/31 75/84/31 73/83/31
f 76/88/32 71/86/32 69/84/32 75/87/32
f 76/89/33 74/90/33 72/85/33 71/86/33
f 69/85/34 70/86/34 73/89/34 75/90/34

g Pillars (11)
v -124.809 -3 215.4482
v -125.809 -3 215.4482
v -124.809 25.5 215.4482
v -125.809 25.5 215.4482
v -130.309 -3 191.4482
v -129.309 -3 191.4482
v -130.309 25.5 191.4482
v -129.309 25.5 191.4482
v -130.559 -3 195.9482
v -130.559 25.5 195.9482
v -129.559 -3 195.9482
v -129.559 25.5 195.9482
v -129.309 -8.50001 191.4482
v -130.309 -8.50001 191.4482
v -130.559 -8.50001 195.9482
v -129.559 -8.50001 195.9482
v -130.559 -4.00001 195.9482
v -125.809 -4.00001 215.4482
v -124.809 -4.00001 215.4482
v -129.559 -4.00001 195.9482

vt 1 -27.5
vt 0 -27.5
vt 1 1
vt 0 1
vt 24.31128 -27.5
vt 4.458187 -27.5
vt 4.458187 1
vt 24.31128 1
vt 19.85309 -27.5
vt 19.85309 1
vt 5.750008 -18.5
vt 4.750008 -18.5
vt 5.500008 -23
vt 4.500008 -23
vt 1.25 -3.5
vt 0.25 -3.5
vt 0 -18.5
vt 4.750008 1
vt 5.750008 1
vt 1 -18.5
vt 0 -4.50001
vt 1 -4.50001
vt 4.506939 1
vt 4.506939 -4.50001
vt 0 -9.536743E-06
vt 1 -9.536743E-06
vt 20.07019 1
vt 20.07019 -9.536743E-06

vn 0 0 1
vn 0 0 -1
vn -0.9715902 0 0.2366698
vn -0.9984604 0 -0.05547002
vn 0.9984604 0 0.05547002
vn 0.9715902 0 -0.2366698
vn 0 1 0
vn 0 -1 0

usemtl Gris
f 79/93/35 80/94/35 78/92/35 77/91/35
f 83/93/36 84/94/36 82/92/36 81/91/36
f 80/98/37 86/97/37 85/96/37 78/95/37
f 86/97/38 83/94/38 81/92/38 85/96/38
f 87/99/39 82/95/39 84/98/39 88/100/39
f 77/92/40 87/99/40 88/100/40 79/94/40
f 80/93/41 79/94/41 88/102/41 86/101/41
f 86/101/41 88/102/41 84/104/41 83/103/41
f 90/106/42 89/105/42 92/93/42 91/94/42
f 93/107/42 96/110/42 95/109/42 94/108/42
f 91/111/35 92/112/35 87/93/35 85/94/35
f 92/111/39 89/114/39 82/113/39 87/94/39
f 89/111/36 90/112/36 81/93/36 82/94/36
f 90/111/38 91/114/38 85/113/38 81/94/38
f 94/115/35 95/116/35 77/93/35 78/94/35
f 95/115/40 96/118/40 87/117/40 77/94/40
f 96/115/36 93/116/36 85/93/36 87/94/36
f 93/115/37 94/118/37 78/117/37 85/94/37

g Pillars (10)
v -79.30898 -53 125.9482
v -80.30898 -53 125.9482
v -80.30898 -26 125.9482
v -79.30898 -26 125.9482
v -80.30898 -26 126.9482
v -80.30898 27 126.9482
v -79.30898 27 126.9482
v -79.30898 -26 126.9482
v -69.30898 -53 107.9482
v -68.30898 -53 107.9482
v -68.30898 -26 107.9482
v -69.30898 -26 107.9482
v -68.30898 27 107.9482
v -69.30898 27 107.9482
v -80.30898 27 125.9482
v -79.30898 27 125.9482
v -71.30898 27 116.9482
v -70.30898 27 116.9482
v -71.30898 -53 116.9482
v -70.30898 -53 116.9482
v -71.30898 -26 116.9482
v -70.30898 -26 116.9482

vt 1 -26
vt 0 -26
vt 0 1
vt 1 1
vt 0 -52
vt 1 -52
vt 1 -79
vt 0 -79
vt 1 -7.629395E-06
vt 0 -7.629395E-06
vt 11 1
vt 12 1
vt 3 -8
vt 2 -8
vt 1 -17
vt 0 -17
vt 12 -17
vt 11 -17
vt 9 -8
vt 10 -8
vt 21.0722 -79
vt 8.851871 -79
vt 8.851871 -52
vt 21.0722 -52
vt 8.851871 1
vt 21.0722 1
vt 12.22034 -52
vt 12.22034 -79
vt 12.22034 1

vn 0 0 1
vn 0 0 -1
vn 0 -1 0
vn -1 0 0
vn 1 0 0
vn 0 1 0
vn -0.7071068 0 -0.7071068
vn -0.9761871 0 -0.2169304
vn 0.7071068 0 0.7071068
vn 0.9761871 0 0.2169304

usemtl Gris
f 100/122/43 99/121/43 98/120/43 97/119/43
f 103/122/43 102/121/43 101/123/43 104/124/43
f 105/125/44 108/124/44 107/123/44 106/126/44
f 108/124/44 110/122/44 109/121/44 107/123/44
f 104/122/45 101/121/45 99/128/45 100/127/45
f 101/124/46 102/122/46 111/121/46 99/123/46
f 103/121/47 104/123/47 100/124/47 112/122/47
f 102/122/48 103/121/48 112/128/48 111/127/48
f 111/130/48 112/129/48 114/132/48 113/131/48
f 113/131/48 114/132/48 109/134/48 110/133/48
f 106/135/45 116/138/45 115/137/45 105/136/45
f 116/138/45 97/122/45 98/121/45 115/137/45
f 99/142/49 117/141/49 115/140/49 98/139/49
f 117/141/50 108/123/50 105/126/50 115/140/50
f 111/144/49 113/143/49 117/141/49 99/142/49
f 113/143/50 110/121/50 108/123/50 117/141/50
f 116/146/51 118/145/51 100/123/51 97/126/51
f 106/139/52 107/142/52 118/145/52 116/146/52
f 118/145/51 114/147/51 112/121/51 100/123/51
f 107/142/52 109/144/52 114/147/52 118/145/52

g Pillars (9)
v -89.30898 -10 172.4482
v -101.309 -10 172.4482
v -89.30898 30 172.4482
v -101.309 30 172.4482
v -101.309 -10 171.4482
v -101.309 30 171.4482
v -89.30898 -10 171.4482
v -89.30898 30 171.4482
v -80.30898 -10 126.9482
v -79.30898 -10 126.9482
v -80.30898 30 126.9482
v -79.30898 30 126.9482
v -85.30898 -10 167.4482
v -84.30898 -10 167.4482
v -85.30898 30 167.4482
v -84.30898 30 167.4482
v -85.30898 -10 153.9482
v -84.30898 -10 153.9482
v -85.30898 30 153.9482
v -84.30898 30 153.9482
v -85.30898 -11.00001 153.9482
v -84.30898 -11.00001 153.9482
v -80.30898 -11.00001 150.9482
v -79.30898 -11.00001 150.9482
v -80.30898 30 150.9482
v -80.30898 -10 150.9482
v -79.30898 -10 150.9482
v -79.30898 30 150.9482
v -80.30898 -11.00001 126.9482
v -79.30898 -11.00001 126.9482

vt 12 -39
vt 0 -39
vt 12 1
vt 0 1
vt 1 -39
vt 1 1
vt 0 0
vt 12 0
vt 4.000008 -4
vt 5.000008 -4
vt 5.656859 1
vt 5.656859 -39
vt 7.071074 -39
vt 7.071074 1
vt 5.000008 1
vt 5.000008 0
vt 0 -4
vt 1 -4
vt 0 -12.50002
vt 1 -12.50002
vt 13.50002 1
vt 13.50002 -39
vt 5 -2.000015
vt 6 -2.000015
vt 5.830959 1
vt 5.830959 -39
vt 6 1
vt 0 -2.000015
vt 1 -2.000015
vt 0 -23.00002
vt 1 -23.00002
vt 24.00002 1
vt 24.00002 -39
vt 1 -9.536743E-06
vt 5.830959 -9.536743E-06
vt 24.00002 -9.536743E-06

vn 0 0 1
vn -1 0 0
vn 0 0 -1
vn 0 1 0
vn 0 -1 0
vn -0.7071061 0 -0.7071075
vn 0.7071062 0 0.7071073
vn 1 0 0
vn -0.5144977 0 -0.8574918
vn 0.5144977 0 0.8574918

usemtl Gris
f 121/150/53 122/151/53 120/149/53 119/148/53
f 122/153/54 124/151/54 123/149/54 120/152/54
f 124/150/55 126/151/55 125/149/55 123/148/55
f 129/153/55 130/151/55 128/149/55 127/152/55
f 126/154/56 124/155/56 122/150/56 121/151/56
f 119/150/57 120/151/57 123/154/57 125/155/57
f 131/156/57 132/157/57 119/151/57 125/154/57
f 133/151/58 131/149/58 125/159/58 126/158/58
f 132/160/59 134/161/59 121/151/59 119/149/59
f 134/164/56 133/165/56 126/163/56 121/162/56
f 135/166/57 136/167/57 132/153/57 131/151/57
f 137/151/54 135/149/54 131/169/54 133/168/54
f 136/169/60 138/168/60 134/151/60 132/149/60
f 138/166/56 137/167/56 133/153/56 134/151/56
f 141/170/57 142/171/57 140/153/57 139/151/57
f 143/151/61 144/149/61 135/173/61 137/172/61
f 145/173/62 146/172/62 138/151/62 136/149/62
f 146/175/56 143/176/56 137/174/56 138/162/56
f 147/177/57 148/178/57 142/153/57 141/151/57
f 129/151/54 127/149/54 144/180/54 143/179/54
f 128/180/60 130/179/60 146/151/60 145/149/60
f 130/177/56 129/178/56 143/153/56 146/151/56
f 139/154/53 140/181/53 136/153/53 135/151/53
f 141/154/61 139/182/61 135/172/61 144/151/61
f 140/154/62 142/182/62 145/172/62 136/151/62
f 147/154/54 141/183/54 144/179/54 127/151/54
f 142/154/60 148/183/60 128/179/60 145/151/60
f 148/154/55 147/181/55 127/153/55 128/151/55

g Pillars (8)
v -129.309 -53 191.4482
v -130.309 -53 191.4482
v -129.309 27 191.4482
v -130.309 27 191.4482
v -124.309 -53 185.4482
v -124.309 27 185.4482
v -101.309 -54 171.4482
v -101.309 -54 172.4482
v -101.309 26 171.4482
v -101.309 26 172.4482
v -123.309 -53 185.4482
v -123.309 27 185.4482
v -108.309 -53 178.9482
v -107.309 -53 178.9482
v -108.309 27 178.9482
v -107.309 27 178.9482

vt 1 -79
vt 0 -79
vt 1 1
vt 0 1
vt 8.485281 -79
vt 8.485281 1
vt 0.9999847 -79
vt 0.9999847 1
vt 6 1
vt 7 1
vt 0 -5
vt 1 -5
vt 7 -5
vt 6 -5
vt 16 -5.500015
vt 17 -5.500015
vt 17.26992 1
vt 17.26992 -79
vt 16 1
vt 17 1
vt 0 -5.500015
vt 1 -5.500015
vt 6.999992 -6.566372
vt 7 -5.575159
vt 10.25914 1
vt 10.25914 -79
vt 0 0
vt 0 -80
vt 8.845915 -80
vt 8.845915 0
vt 0 -5.576488
vt 7.629395E-06 -6.564844

vn 0 0 1
vn -0.7071068 0 -0.7071068
vn 1 0 -7.629511E-06
vn 0.7071068 0 0.7071068
vn 0 1 0
vn 0 -1 0
vn -0.3763778 0 -0.9264663
vn 0.3763778 0 0.9264663
vn 0 -0.9912279 0.1321637
vn -0.08219884 -0.988811 0.06608249
vn -0.1643977 -0.9863942 1.254274E-06
vn -0.7310556 0 -0.6823179
vn 0.7348043 0 0.6782793
vn 0 0.9883717 -0.1520568
vn 0.07071019 0.9891607 -0.07602895
vn 0.1414204 0.9899496 -1.078968E-06

usemtl Gris
f 151/186/63 152/187/63 150/185/63 149/184/63
f 152/189/64 154/187/64 153/185/64 150/188/64
f 157/191/65 158/187/65 156/185/65 155/190/65
f 160/189/66 151/187/66 149/185/66 159/188/66
f 160/194/67 154/195/67 152/193/67 151/192/67
f 149/186/68 150/187/68 153/197/68 159/196/68
f 161/198/68 162/199/68 159/186/68 153/187/68
f 163/187/69 161/185/69 153/201/69 154/200/69
f 162/201/70 164/200/70 160/187/70 159/185/70
f 164/204/67 163/205/67 154/203/67 160/202/67
f 155/206/72 156/207/73 162/186/72 161/187/71
f 157/210/74 155/211/74 161/209/74 163/208/74
f 156/212/75 158/213/75 164/187/75 162/185/75
f 158/214/77 157/215/78 163/193/77 164/192/76

g Pillars (7)
v 19.19102 -53 255.4482
v -93.80898 -53 255.4482
v 19.19102 27 255.4482
v -93.80898 27 255.4482
v -125.809 -53 215.4483
v -124.809 -53 215.4482
v -125.809 27 215.4483
v -124.809 27 215.4482
v -93.80898 -53 254.4482
v 19.19102 -53 254.4482
v -93.80898 27 254.4482
v 19.19102 27 254.4482

vt 113 -79
vt 0 -79
vt 113 1
vt 0 1
vt 1 -79
vt 1 1
vt 0 0
vt 113 0
vt 32.00002 1
vt 32.00002 0
vt 0 -38.99998
vt 1 -39
vt 51.22499 1
vt 51.22499 -79
vt 49.81969 -79
vt 49.81969 1
vt 31.00002 -39
vt 32.00002 -38.99998

vn 0 0 1
vn -1.525879E-05 0 -1
vn 1 0 0
vn 0 1 0
vn 0 -1 0
vn -0.7808685 0 0.6246954
vn 0.7828231 0 -0.6222444

usemtl Gris
f 167/218/79 168/219/79 166/217/79 165/216/79
f 171/221/80 172/219/80 170/217/80 169/220/80
f 175/218/80 176/219/80 174/217/80 173/216/80
f 176/221/81 167/219/81 165/217/81 174/220/81
f 176/222/82 175/223/82 168/218/82 167/219/82
f 165/218/83 166/219/83 173/222/83 174/223/83
f 169/226/83 170/227/83 173/225/83 166/224/83
f 171/219/84 169/217/84 166/229/84 168/228/84
f 170/230/85 172/231/85 175/219/85 173/217/85
f 172/232/82 171/233/82 168/219/82 175/222/82

g Pillars (5)
v 65.19102 25.5 332.4482
v -184.809 25.5 332.4482
v 65.19102 26.5 332.4482
v -184.809 26.5 332.4482
v -184.809 25.5 82.44824
v -184.809 26.5 82.44824
v 65.19102 25.5 82.44824
v 65.19102 26.5 82.44824

vt 250 0
vt 0 0
vt 250 1
vt 0 1
vt 0 -249
vt 250 -249

vn 0 0 1
vn -1 0 0
vn 0 0 -1
vn 1 0 0
vn 0 1 0
vn 0 -1 0

usemtl 1_-_shader_3
f 179/236/86 180/237/86 178/235/86 177/234/86
f 180/236/87 182/237/87 181/235/87 178/234/87
f 182/236/88 184/237/88 183/235/88 181/234/88
f 184/236/89 179/237/89 177/235/89 183/234/89
f 184/238/90 182/239/90 180/236/90 179/237/90
f 177/236/91 178/237/91 181/238/91 183/239/91

