# ProBuilder 6.0.9
# https://unity3d.com/unity/features/worldbuilding/probuilder
# 18/09/2026 6:44:04 p. m.

mtllib ./Zhouse_plaza.mtl
o Zhouse plaza

g Bridge (43)
v -71.80898 -13.97777 195.4382
v -78.29898 -13.97777 195.4382
v -71.80898 -13.97777 190.4582
v -78.29898 -13.97777 190.4582
v -71.80898 -21.97778 189.9482
v -78.80898 -21.97778 189.9482
v -71.80898 -21.97778 195.9482
v -78.80898 -21.97778 195.9482
v -64.30898 -21.97778 189.9482
v -68.80898 -21.97778 195.9482
v -71.30997 -9.97776 195.4492
v -71.30997 -9.97776 190.4473
v -69.00826 -9.97776 195.5313
v -65.10734 -9.97776 190.3549
v -58.30897 -21.97778 196.9482
v -64.30897 -21.97778 200.9482
v -58.30896 -21.97778 201.9483
v -64.30896 -21.97778 202.4483
v -63.89376 -9.97776 201.1705
v -58.72417 -9.97776 197.7241
v -63.84473 -9.97776 201.9089
v -58.79665 -9.97776 201.4908
v -58.30896 -21.97778 204.5778
v -64.30896 -21.97778 205.0778
v -63.81168 -9.97776 202.9058
v -58.80624 -9.97776 202.4887
v -63.81168 -9.97776 204.5374
v -58.80624 -9.97776 204.1203
v -71.80898 -15.97778 195.9482
v -78.80898 -15.97778 195.9482
v -71.80898 -14.48777 195.9482
v -78.80898 -14.48777 195.9482
v -78.80898 -15.97778 189.9482
v -78.80898 -14.48777 189.9482
v -71.80898 -15.97778 189.9482
v -71.80898 -14.48777 189.9482
v -71.80898 -10.97777 195.9482
v -71.80898 -10.97777 189.9482
v -68.80898 -15.97778 195.9482
v -68.80898 -10.97777 195.9482
v -64.30898 -15.97778 189.9482
v -64.30898 -10.97777 189.9482
v -64.30896 -15.97778 202.4483
v -64.30897 -15.97778 200.9482
v -64.30896 -10.97777 202.4483
v -64.30897 -10.97777 200.9482
v -58.30897 -15.97778 196.9482
v -58.30896 -15.97778 201.9483
v -58.30897 -10.97777 196.9482
v -58.30896 -10.97777 201.9483
v -64.30896 -15.97778 205.0778
v -64.30896 -10.97777 205.0778
v -58.30896 -15.97778 204.5778
v -58.30896 -10.97777 204.5778
v -64.30896 -10.47677 205.0778
v -64.30896 -10.47677 202.4483
v -58.30896 -10.47677 201.9483
v -58.30896 -10.47677 204.5778
v -71.80898 -10.47677 195.9482
v -71.80898 -10.47677 189.9482
v -64.30897 -10.47677 200.9482
v -58.30897 -10.47677 196.9482
v -68.80898 -10.47677 195.9482
v -64.30898 -10.47677 189.9482
v -67.42827 -21.97778 197.4059
v -62.26664 -21.97778 192.4693
v -68.16683 -9.97776 195.911
v -64.29384 -9.97776 190.7355
v -62.93941 -9.97776 192.4249
v -67.41071 -9.97776 196.6988
v -67.42827 -15.97778 197.4059
v -67.42827 -10.97777 197.4059
v -62.26664 -15.97778 192.4693
v -62.26664 -10.97777 192.4693
v -67.42827 -10.47677 197.4059
v -62.26664 -10.47677 192.4693
v -59.82318 -21.97778 195.158
v -65.4482 -21.97778 199.658
v -64.22287 -9.97776 200.2963
v -64.72823 -9.97776 199.7204
v -59.89061 -9.97776 195.8507
v -59.04707 -9.97776 196.8446
v -65.38801 -9.97776 198.9715
v -66.73814 -9.97776 197.4357
v -62.29168 -9.97776 193.1835
v -60.54855 -9.97776 195.1005
v -65.4482 -15.97778 199.658
v -65.4482 -10.97777 199.658
v -59.82318 -10.97777 195.158
v -59.82318 -15.97778 195.158
v -65.4482 -10.47677 199.658
v -59.82318 -10.47677 195.158
v -78.80898 -18.47778 195.9482
v -71.80898 -18.47778 195.9482
v -78.80898 -18.47778 189.9482
v -71.80898 -18.47778 189.9482
v -64.30896 -18.47778 205.0778
v -58.30896 -18.47778 204.5778
v -64.30898 -18.47778 189.9482
v -68.80898 -18.47778 195.9482
v -58.30897 -18.47778 196.9482
v -58.30896 -18.47778 201.9483
v -64.30897 -18.47778 200.9482
v -64.30896 -18.47778 202.4483
v -62.26664 -18.47778 192.4693
v -67.42827 -18.47778 197.4059
v -59.82318 -18.47778 195.158
v -65.4482 -18.47778 199.658
v -64.9482 -21.97778 199.158
v -66.92828 -21.97778 196.9059
v -66.92828 -18.47778 196.9059
v -64.9482 -18.47778 199.158

vt 0 0.49
vt 6.49 0.49
vt 0 -4.49
vt 6.49 -4.49
vt 7 -5
vt 0 -5
vt 7 1
vt 0 1
vt 7.500008 -5
vt 3.000008 1
vt 7.000998 0.5009905
vt 7.000998 -4.50099
vt 4.699287 0.5830197
vt 0.79836 -4.593362
vt 6 -4.500015
vt 0 -0.5000153
vt 6.000008 0.5
vt 5.584804 -0.2778064
vt 0.4152079 -3.724205
vt 5.535774 0.4606463
vt 0.4876859 0.04252329
vt 6 -2.129562
vt 0 -1.629562
vt 5.502714 -2.542446
vt 0.4972859 -2.959565
vt 5.502714 0.45955
vt 0.4972859 0.04243094
vt 7 -1.00001
vt 0 -1.00001
vt 7 0.49
vt 6 -1.00001
vt 6 0.49
vt 6 -4.00001
vt 0 -4.00001
vt 6 1
vt 3.000008 -4.00001
vt 7.500008 -4.00001
vt 7.500008 1
vt 1.500015 -4.00001
vt 1.500015 1
vt 5.000015 -4.00001
vt 5.000015 1
vt 2.629562 -4.00001
vt 2.629562 1
vt 6.020797 -4.00001
vt 6.020797 1
vt 4.000015 0.4999905
vt 0 0.4999905
vt 4.000015 0.5009905
vt 0 0.5009905
vt 6.020798 0.4999905
vt 6.020798 0.5009905
vt 6 0.4999905
vt 6 0.5009905
vt 1.500015 0.4999905
vt 1.500015 0.5009905
vt 5.000015 0.4999905
vt 5.000015 0.5009905
vt 3.000008 0.4999905
vt 3.000008 0.5009905
vt 7.500008 0.4999905
vt 7.500008 0.5009905
vt 4.5 -10
vt 1.380707 -2.542389
vt 6.542332 -7.478958
vt 9.857862 -4.037246
vt 5.984873 -9.212732
vt 4.630446 -7.523384
vt 9.101742 -3.249471
vt 2.00715 -4.00001
vt 2.00715 1
vt 9.219535 -4.00001
vt 5.976131 -4.00001
vt 5.976131 1
vt 9.219535 1
vt 2.00715 0.4999905
vt 2.00715 0.5009905
vt 9.219535 0.4999905
vt 5.976131 0.4999905
vt 5.976131 0.5009905
vt 9.219535 0.5009905
vt 4.500008 1
vt 10.50001 -3
vt 8.98579 -4.790253
vt 3.360779 -0.2902527
vt 5.913904 0.3480991
vt 6.419269 -0.2278939
vt 1.581641 -4.097545
vt 0.7381018 -3.103654
vt 7.079043 -0.9767565
vt 8.429171 -2.512516
vt 3.982708 -6.764775
vt 2.239586 -4.847728
vt 6.72681 -4.00001
vt 5.005694 -4.00001
vt 5.005694 1
vt 6.72681 1
vt 2.344724 1
vt 2.344724 -4.00001
vt 6.72681 0.4999905
vt 5.005695 0.4999905
vt 5.005695 0.5009905
vt 6.72681 0.5009905
vt 2.344724 0.5009905
vt 2.344724 0.4999905
vt 0 -1.5
vt 7 -1.5
vt 6 -5
vt 6 -1.5
vt 6.020799 -5
vt 6.020799 -1.5
vt 7.500008 -1.5
vt 3.000008 -1.5
vt 3.000008 -5
vt 5.000015 -1.5
vt 5.000015 -5
vt 1.500015 -1.5
vt 1.500015 -5
vt 2.629562 -1.5
vt 2.629562 -5
vt 5.976131 -5
vt 5.976131 -1.5
vt 9.219535 -1.5
vt 9.219535 -5
vt 2.00727 -5
vt 2.00727 -1.5
vt 2.344724 -1.5
vt 2.344724 -5
vt 6.726762 -5
vt 5.005701 -5
vt 5.005701 -1.5
vt 6.726762 -1.5
vt 2.9988 -2.5
vt 0 -2.5
vt 2.9988 1
vt 0.4999924 1
vt 2.480064 -1.252136
vt 0 0.5
vt 1.980072 -1.752136
vt 0.7071016 -2.5
vt 0.7071016 1
vt 0 -1.252136
vt 1.980072 1
vt 0.4999924 -1.752136
vt 2.480064 0.5
vt -9.545257 2.500992
vt -9.545257 -2.500992
vt -8.839552 3
vt -8.839552 -3
vt 6.888404 5.472364
vt 4.58523 5.472364
vt 7.102416 4.826768
vt 4.104312 4.758974
vt -4.630581 4.487829
vt -10.83255 4.35815
vt -4.124305 3.78732
vt -11.6235 3.710086
vt -10.70164 -2.593369
vt -6.80072 2.583023
vt -11.51514 -2.212738
vt -7.642151 2.962753
vt -3.282964 4.440711
vt -4.335424 6.332993
vt -3.585296 3.558885
vt -5.172297 6.388736
vt -12.86957 -0.5233765
vt -8.398277 3.750534
vt -13.51731 0.2352295
vt -9.070847 4.487488
vt -12.06905 2.091193
vt -11.45448 1.188627
vt -11.76408 2.901296
vt -10.64185 1.236514
vt -13.7379 4.890673
vt -12.65874 3.153775
vt -13.38991 5.667097
vt -11.80725 3.119944
vt -5.513166 7.473408
vt -6.914428 9.652852
vt -5.830096 6.661462
vt -7.794344 9.717825
vt -11.08075 6.77211
vt -15.91837 2.902451
vt -10.42097 6.023239
vt -15.26043 2.152267
vt -14.67001 6.412235
vt -14.26733 5.760312
vt -14.29989 7.150077
vt -13.39214 5.687696
vt -7.212358 10.26517
vt -7.883482 11.38275
vt -7.56831 9.486263
vt -8.773027 11.49786
vt -11.91522 8.222214
vt -17.08482 4.775818
vt -11.58611 7.348099
vt -16.76191 3.896347
vt -14.82612 9.048307
vt -14.79142 8.309046
vt -14.14504 9.588252
vt -14.14503 8.089884
vt -4.446249 -3.723377
vt -8.21367 -3.723377
vt -3.662587 -4.363039
vt -8.661676 -4.423225
vt -17.01234 8.542542
vt -11.96425 8.960663
vt -17.00274 9.540466
vt -11.99731 9.957581
vt 11.58913 14.84366
vt 9.957581 14.84366
vt 12.12958 14.13917
vt 9.500015 14.13917
vt -9.540466 -5.626929
vt -11.17201 -5.626929
vt -9.000015 -6.331416
vt -11.62958 -6.331416
vt 16.01623 -2.480544
vt 10.99345 -2.480544
vt 16.4738 -3.185029
vt 10.453 -3.185033
vt 7.261233 7.95363
vt 7.6144 7.372366
vt 8.184381 7.95363
vt -7.672035 3.896644
vt -8.579949 3.419745
vt -8.451383 4.343049
vt -4.556206 6.550769
vt -5.393512 6.600992
vt -5.065456 7.408507
vt -12.12249 2.258444
vt -12.65982 3.099114
vt -11.80834 3.065032
vt -13.73701 4.883284
vt -13.38937 5.659861
vt -14.26474 5.730405
vt -6.920534 9.448558
vt -7.80046 9.513382
vt -7.449588 10.29459
vt 10.95926 12.00138
vt 11.53902 11.41377
vt 11.89328 12.00138
vt -8.425099 7.366274
vt -9.315783 7.472255
vt -8.688038 8.265495
vt 9.352262 14.57418
vt 9.875933 13.88051
vt 10.34973 14.57418
vt -8.378534 -5.59365
vt -8.831297 -6.294462
vt -9.376505 -5.59365
vt 0.51 1
vt 7 0.2787509
vt 0 0.2787509
vt 6.49 1
vt 0.7212491 1
vt 0.7212491 -5
vt 0 0.4899998
vt 5.49 1
vt 6 0.4899998

vn 0 1 0
vn 0 -1 0
vn 0 0 1
vn -1 0 0
vn 0 0 -1
vn 1 0 -1.525874E-06
vn 0.08304548 0 0.9965457
vn -0.7259994 0 0.6876954
vn 0.7770205 0 -0.6294753
vn -0.7496157 0 0.6618733
vn -0.7510124 0 0.6602881
vn 0.763515 0 -0.6457902
vn 0.7400523 0 -0.6725493
vn 0.7071122 0 0.7071014
vn -0.7071122 0 -0.7071014
vn -0.7071075 0.7071061 0
vn -0.02752963 0.6344749 0.772453
vn -0.01376482 0.6707906 0.7397802
vn 0 0.7071061 0.7071075
vn -0.01045235 0.7122744 -0.7018234
vn -0.005226175 0.6719884 -0.7385172
vn 0 0.6317023 -0.775211
vn 0.5619362 0.6937254 -0.450525
vn 0.5568482 0.6989144 -0.4487569
vn 0.5517603 0.7041034 -0.4469888
vn -0.5084669 0.7094241 0.4880358
vn -0.5127712 0.7056873 0.4889151
vn -0.5170755 0.7019506 0.4897943
vn -0.531346 0.7067301 0.4671232
vn 0.523178 0.7070929 -0.4757147
vn 0.5234617 0.7067961 -0.4758436
vn 0.5237453 0.7064992 -0.4759726
vn -0.5338449 0.7040051 0.4683871
vn -0.5321083 0.7053468 0.4683394
vn -0.5303717 0.7066886 0.4682917
vn 0.5387712 0.7075545 -0.457266
vn 0.5399776 0.7064791 -0.457503
vn 0.5411839 0.7054036 -0.4577399
vn -0.7056034 0.7070565 0.04684947
vn -0.7371542 0.6733299 0.02342669
vn -0.7687051 0.6396033 3.909797E-06
vn 0.7799692 0.6256379 0.01500816
vn 0.7475719 0.6622919 0.007503533
vn 0.7151747 0.6989458 -1.091267E-06
vn -0.7083302 0.7058813 0
vn 0.7083302 0.7058813 0
vn 0.05882306 0.7058796 0.7058852
vn -0.3531336 0.5128319 0.7824962
vn 0.2444605 0.8168616 -0.5224712
vn 0.5465552 0.6953332 -0.4666788
vn -0.5272329 0.7003571 0.4811708
vn -0.5305771 0.70709 0.4674523
vn 0.5271405 0.7130064 -0.4623255
vn -0.7947593 0.5280344 0.2992279
vn 0.567701 0.796411 -0.2084346
vn -0.7189745 0.6946275 0.02384146
vn 0.7120121 0.7021338 0.006847945
vn 0 0.7071066 -0.7071069

usemtl ProBuilderDefault
f 13/222/48 63/223/48 67/224/48
f 68/227/49 64/226/49 14/225/49
f 85/230/50 76/229/50 69/228/50
f 75/233/51 84/232/51 70/231/51
f 83/234/52 91/235/52 80/236/52
f 81/239/53 92/238/53 86/237/53
f 79/240/54 61/241/54 19/242/54
f 20/245/55 62/244/55 82/243/55
f 21/246/56 56/247/56 25/248/56
f 26/251/57 57/250/57 22/249/57
f 35/31/6 36/260/6 3/259/6
f 35/31/6 3/259/6 29/29/6
f 3/259/6 1/252/6 29/29/6
f 29/29/6 1/252/6 31/258/6
f 4/4/1 2/2/1 1/1/1
f 1/1/1 3/3/1 4/4/1
f 8/8/2 6/6/2 5/5/2
f 5/5/2 7/7/2 8/8/2
f 10/10/2 7/8/2 5/6/2
f 5/6/2 9/9/2 10/10/2
f 14/14/1 12/12/1 11/11/1
f 11/11/1 13/13/1 14/14/1
f 18/8/2 16/16/2 15/15/2
f 15/15/2 17/17/2 18/8/2
f 22/21/1 20/19/1 19/18/1
f 19/18/1 21/20/1 22/21/1
f 24/8/2 18/23/2 17/22/2
f 17/22/2 23/17/2 24/8/2
f 28/27/1 26/25/1 25/24/1
f 25/24/1 27/26/1 28/27/1
f 32/1/3 30/29/3 29/28/3
f 29/28/3 31/30/3 32/1/3
f 34/1/4 33/29/4 30/31/4
f 30/31/4 32/32/4 34/1/4
f 36/1/5 35/29/5 33/28/5
f 33/28/5 34/30/5 36/1/5
f 38/8/4 35/34/4 29/33/4
f 29/33/4 37/35/4 38/8/4
f 37/8/3 29/34/3 39/36/3
f 39/36/3 40/10/3 37/8/3
f 42/8/5 41/34/5 35/37/5
f 35/37/5 38/38/5 42/8/5
f 46/8/4 44/34/4 43/39/4
f 43/39/4 45/40/4 46/8/4
f 50/8/6 48/34/6 47/41/6
f 47/41/6 49/42/6 50/8/6
f 45/8/4 43/34/4 51/43/4
f 51/43/4 52/44/4 45/8/4
f 54/8/6 53/34/6 48/43/6
f 48/43/6 50/44/6 54/8/6
f 52/8/7 51/34/7 53/45/7
f 53/45/7 54/46/7 52/8/7
f 56/50/4 45/48/4 52/47/4
f 52/47/4 55/49/4 56/50/4
f 58/50/6 54/48/6 50/47/6
f 50/47/6 57/49/6 58/50/6
f 55/50/7 52/48/7 54/51/7
f 54/51/7 58/52/7 55/50/7
f 60/50/4 38/48/4 37/53/4
f 37/53/4 59/54/4 60/50/4
f 61/50/4 46/48/4 45/55/4
f 45/55/4 56/56/4 61/50/4
f 57/50/6 50/48/6 49/57/6
f 49/57/6 62/58/6 57/50/6
f 59/50/3 37/48/3 40/59/3
f 40/59/3 63/60/3 59/50/3
f 64/50/5 42/48/5 38/61/5
f 38/61/5 60/62/5 64/50/5
f 9/63/2 66/65/2 65/64/2
f 65/64/2 10/34/2 9/63/2
f 69/68/1 68/67/1 67/66/1
f 67/66/1 70/69/1 69/68/1
f 40/8/8 39/34/8 71/70/8
f 71/70/8 72/71/8 40/8/8
f 42/75/9 74/74/9 73/73/9
f 73/73/9 41/72/9 42/75/9
f 63/50/8 40/48/8 72/76/8
f 72/76/8 75/77/8 63/50/8
f 64/81/9 76/80/9 74/79/9
f 74/79/9 42/78/9 64/81/9
f 78/85/2 77/84/2 15/83/2
f 15/83/2 16/82/2 78/85/2
f 66/65/2 77/84/2 78/85/2
f 78/85/2 65/64/2 66/65/2
f 82/89/1 81/88/1 80/87/1
f 80/87/1 79/86/1 82/89/1
f 85/92/1 84/91/1 83/90/1
f 83/90/1 86/93/1 85/92/1
f 88/96/10 87/95/10 44/94/10
f 44/94/10 46/97/10 88/96/10
f 72/71/11 71/70/11 87/95/11
f 87/95/11 88/96/11 72/71/11
f 89/98/12 49/8/12 47/34/12
f 47/34/12 90/99/12 89/98/12
f 74/74/13 89/98/13 90/99/13
f 90/99/13 73/73/13 74/74/13
f 91/102/10 88/101/10 46/100/10
f 46/100/10 61/103/10 91/102/10
f 75/77/11 72/76/11 88/101/11
f 88/101/11 91/102/11 75/77/11
f 92/104/12 62/50/12 49/48/12
f 49/48/12 89/105/12 92/104/12
f 76/80/13 92/104/13 89/105/13
f 89/105/13 74/79/13 76/80/13
f 93/106/3 8/6/3 7/5/3
f 7/5/3 94/107/3 93/106/3
f 30/8/3 93/106/3 94/107/3
f 94/107/3 29/7/3 30/8/3
f 95/106/4 6/6/4 8/108/4
f 8/108/4 93/109/4 95/106/4
f 33/8/4 95/106/4 93/109/4
f 93/109/4 30/35/4 33/8/4
f 95/107/5 96/106/5 5/6/5
f 5/6/5 6/5/5 95/107/5
f 33/7/5 35/8/5 96/106/5
f 96/106/5 95/107/5 33/7/5
f 97/106/7 24/6/7 23/110/7
f 23/110/7 98/111/7 97/106/7
f 51/8/7 97/106/7 98/111/7
f 98/111/7 53/46/7 51/8/7
f 35/38/5 41/8/5 99/106/5
f 99/106/5 96/112/5 35/38/5
f 96/112/5 99/106/5 9/6/5
f 9/6/5 5/9/5 96/112/5
f 94/106/3 7/6/3 10/114/3
f 10/114/3 100/113/3 94/106/3
f 29/8/3 94/106/3 100/113/3
f 100/113/3 39/10/3 29/8/3
f 47/42/6 48/8/6 102/106/6
f 102/106/6 101/115/6 47/42/6
f 101/115/6 102/106/6 17/6/6
f 17/6/6 15/116/6 101/115/6
f 103/106/4 16/6/4 18/118/4
f 18/118/4 104/117/4 103/106/4
f 44/8/4 103/106/4 104/117/4
f 104/117/4 43/40/4 44/8/4
f 48/44/6 53/8/6 98/106/6
f 98/106/6 102/119/6 48/44/6
f 102/119/6 98/106/6 23/6/6
f 23/6/6 17/120/6 102/119/6
f 104/106/4 18/6/4 24/120/4
f 24/120/4 97/119/4 104/106/4
f 43/8/4 104/106/4 97/119/4
f 97/119/4 51/44/4 43/8/4
f 9/124/9 99/123/9 105/122/9
f 105/122/9 66/121/9 9/124/9
f 99/123/9 41/75/9 73/74/9
f 73/74/9 105/122/9 99/123/9
f 100/106/8 10/6/8 65/125/8
f 65/125/8 106/126/8 100/106/8
f 39/8/8 100/106/8 106/126/8
f 106/126/8 71/71/8 39/8/8
f 77/128/12 107/127/12 101/106/12
f 101/106/12 15/6/12 77/128/12
f 107/127/12 90/98/12 47/8/12
f 47/8/12 101/106/12 107/127/12
f 105/122/13 107/127/13 77/128/13
f 77/128/13 66/121/13 105/122/13
f 73/74/13 90/98/13 107/127/13
f 107/127/13 105/122/13 73/74/13
f 108/131/10 78/130/10 16/129/10
f 16/129/10 103/132/10 108/131/10
f 87/96/10 108/131/10 103/132/10
f 103/132/10 44/97/10 87/96/10
f 111/8/11 110/134/11 109/133/11
f 109/133/11 112/135/11 111/8/11
f 71/71/11 106/126/11 108/131/11
f 108/131/11 87/96/11 71/71/11
f 110/139/1 65/137/1 78/136/1
f 78/136/1 109/138/1 110/139/1
f 111/141/14 106/8/14 65/134/14
f 65/134/14 110/140/14 111/141/14
f 109/134/15 78/140/15 108/141/15
f 108/141/15 112/8/15 109/134/15
f 112/145/2 108/143/2 106/142/2
f 106/142/2 111/144/2 112/145/2
f 59/148/16 11/146/16 12/147/16
f 12/147/16 60/149/16 59/148/16
f 63/152/18 13/150/17 11/151/18
f 11/151/18 59/153/19 63/152/18
f 60/156/21 12/154/20 14/155/21
f 14/155/21 64/157/22 60/156/21
f 68/160/1 14/158/1 13/159/1
f 13/159/1 67/161/1 68/160/1
f 64/164/24 68/162/23 69/163/24
f 69/163/24 76/165/25 64/164/24
f 85/168/1 69/166/1 70/167/1
f 70/167/1 84/169/1 85/168/1
f 75/172/27 70/170/26 67/171/27
f 67/171/27 63/173/28 75/172/27
f 91/176/29 83/174/29 84/175/29
f 84/175/29 75/177/29 91/176/29
f 76/180/31 85/178/30 86/179/31
f 86/179/31 92/181/32 76/180/31
f 83/184/1 80/182/1 81/183/1
f 81/183/1 86/185/1 83/184/1
f 61/188/34 79/186/33 80/187/34
f 80/187/34 91/189/35 61/188/34
f 92/192/37 81/190/36 82/191/37
f 82/191/37 62/193/38 92/192/37
f 79/196/1 19/194/1 20/195/1
f 20/195/1 82/197/1 79/196/1
f 56/200/40 21/198/39 19/199/40
f 19/199/40 61/201/41 56/200/40
f 62/204/43 20/202/42 22/203/43
f 22/203/43 57/205/44 62/204/43
f 26/208/1 22/206/1 21/207/1
f 21/207/1 25/209/1 26/208/1
f 55/212/45 27/210/45 25/211/45
f 25/211/45 56/213/45 55/212/45
f 57/216/46 26/214/46 28/215/46
f 28/215/46 58/217/46 57/216/46
f 58/220/47 28/218/47 27/219/47
f 27/219/47 55/221/47 58/220/47
f 31/253/19 1/7/19 2/252/19
f 2/252/19 32/254/19 31/253/19
f 34/253/58 4/255/58 3/8/58
f 3/8/58 36/254/58 34/253/58
f 32/256/16 2/1/16 4/3/16
f 4/3/16 34/257/16 32/256/16

