# ProBuilder 6.0.9
# https://unity3d.com/unity/features/worldbuilding/probuilder
# 18/09/2026 6:28:55 p. m.

mtllib ./Zone_A.mtl
o Zone_A

g Zone_A
v -78.80898 -22 172.4482
v -67.55898 -22 172.4482
v -67.55898 -22 186.1982
v -78.80898 -22 186.1982
v -61.80898 -22 175.9482
v -59.80898 -22 184.1982
v -67.55898 -22 199.9482
v -78.80898 -22 199.9482
v -56.30898 -22 199.9482
v -78.80898 -42 172.4482
v -78.80898 -42 186.1982
v -67.55898 -42 186.1982
v -67.55898 -42 172.4482
v -59.80898 -42 184.1982
v -61.80898 -42 175.9482
v -78.80898 -42 199.9482
v -67.55898 -42 199.9482
v -56.30898 -42 199.9482
v -101.309 -22 172.4482
v -90.05898 -22 172.4482
v -90.05898 -22 186.1982
v -101.309 -22 186.1982
v -90.05898 -22 199.9482
v -101.309 -22 199.9482
v -101.309 -42 172.4482
v -101.309 -42 186.1982
v -90.05898 -42 186.1982
v -90.05898 -42 172.4482
v -101.309 -42 199.9482
v -90.05898 -42 199.9482
v -67.55898 -22 213.6982
v -67.55898 -22 227.4482
v -78.80898 -22 227.4482
v -78.80898 -22 213.6982
v -56.30898 -22 212.6982
v -56.30898 -22 227.4482
v -78.80898 -42 213.6982
v -78.80898 -42 227.4482
v -67.55898 -42 227.4482
v -67.55898 -42 213.6982
v -56.30898 -42 227.4482
v -56.30898 -42 212.6982
v -90.05898 -22 213.6982
v -90.05898 -22 227.4482
v -101.309 -22 227.4482
v -101.309 -22 213.6982
v -101.309 -42 213.6982
v -101.309 -42 227.4482
v -90.05898 -42 227.4482
v -90.05898 -42 213.6982
v -54.30898 -22 223.4482
v -54.30898 -22 212.6982
v -54.30898 -42 212.6982
v -54.30898 -42 223.4482
v -67.55898 -22 211.3232
v -78.80898 -22 211.3232
v -56.30898 -22 210.6781
v -78.80898 -42 211.3232
v -67.55898 -42 211.3232
v -56.30898 -42 210.8232
v -90.05898 -22 211.3232
v -101.309 -22 211.3232
v -101.309 -42 211.3232
v -90.05898 -42 211.3232
v -67.55898 -22 203.9147
v -78.80898 -22 203.9147
v -56.30898 -22 203.6647
v -78.80898 -42 203.9147
v -67.55898 -42 203.9147
v -56.30898 -42 203.6647
v -90.05898 -22 203.9147
v -101.309 -22 203.9147
v -101.309 -42 203.9147
v -90.05898 -42 203.9147
v -101.309 -32 186.1982
v -101.309 -32 199.9482
v -101.309 -32 172.4482
v -56.30898 -32 199.9482
v -59.80898 -32 184.1982
v -61.80898 -32 175.9482
v -67.55898 -32 227.4482
v -56.30898 -32 227.4482
v -78.80898 -32 227.4482
v -67.55898 -32 172.4482
v -78.80898 -32 172.4482
v -90.05898 -32 227.4482
v -101.309 -32 227.4482
v -90.05898 -32 172.4482
v -101.309 -32 213.6982
v -54.30898 -32 223.4482
v -54.30898 -32 212.6982
v -56.30898 -32 212.6982
v -101.309 -32 211.3232
v -56.30898 -32 210.6781
v -101.309 -32 203.9147
v -56.30898 -32 203.6647
v -101.309 -25 186.1982
v -101.309 -25 199.9482
v -101.309 -25 172.4482
v -56.30898 -25 199.9482
v -59.80898 -25 184.1982
v -61.80898 -25 175.9482
v -67.55898 -25 227.4482
v -56.30898 -25 227.4482
v -78.80898 -25 227.4482
v -67.55898 -25 172.4482
v -78.80898 -25 172.4482
v -90.05898 -25 227.4482
v -101.309 -25 227.4482
v -90.05898 -25 172.4482
v -101.309 -25 213.6982
v -54.30898 -25 223.4482
v -54.30898 -25 212.6982
v -56.30898 -25 212.6982
v -101.309 -25 211.3232
v -56.30898 -25 210.6781
v -101.309 -25 203.9147
v -56.30898 -25 203.6647
v -60.80898 -31.99999 210.6781
v -60.80898 -25 210.6781
v -60.80898 -25 203.6647
v -60.80898 -31.99999 203.6647

vt 22.5 -54
vt 11.25 -54
vt 11.25 -40.25
vt 22.5 -40.25
vt 5.5 -50.5
vt 3.5 -42.25
vt 11.25 -26.5
vt 22.5 -26.5
vt 0 -26.5
vt 33.75 -40.25
vt 33.75 -54
vt 41.5 -42.25
vt 39.5 -50.5
vt 33.75 -26.5
vt 45 -26.5
vt 45 -54
vt 45 -40.25
vt 0 -54
vt 0 -40.25
vt 11.25 -12.75
vt 11.25 1
vt 22.5 1
vt 22.5 -12.75
vt 0 -13.75
vt 0 1
vt 33.75 1
vt 33.75 -12.75
vt 45 1
vt 45 -13.75
vt 45 -12.75
vt 0 -12.75
vt 2.000008 1
vt 2.000008 -13.75
vt 0 -3
vt 2.000008 -3
vt 11.25 -15.125
vt 22.5 -15.125
vt 0 -15.77011
vt 33.75 -15.125
vt 45 -15.625
vt 45 -15.125
vt 0 -15.125
vt 11.25 -22.53358
vt 22.5 -22.53358
vt 0 -22.78358
vt 33.75 -22.53358
vt 45 -22.78358
vt 45 -22.53358
vt 0 -22.53358
vt 27.5 -19
vt 13.75 -19
vt 13.75 -9
vt 27.5 -9
vt 0 -19
vt 0 -9
vt 12.68913 -19
vt 12.68913 -9
vt 28.70553 -9
vt 28.70553 -19
vt 37.11134 -9
vt 37.11134 -19
vt 45 -19
vt 33.75 -19
vt 33.75 -9
vt 45 -9
vt 22.5 -19
vt 22.5 -9
vt 6.166306 -9
vt 6.166306 -19
vt 17.31531 -9
vt 17.31531 -19
vt 11.25 -19
vt 11.25 -9
vt 28.46432 -9
vt 28.46432 -19
vt 39.61333 -9
vt 39.61333 -19
vt 55 -19
vt 41.25 -19
vt 41.25 -9
vt 55 -9
vt 10.75 -9
vt 10.75 -19
vt 4.472139 -9
vt 4.472139 -19
vt 2.000008 -9
vt 2.000008 -19
vt 38.875 -19
vt 38.875 -9
vt 2.010468 -9
vt 1.86605 -19
vt 31.46642 -19
vt 31.46642 -9
vt 8.990461 -9
vt 8.990461 -19
vt 13.75 -2
vt 27.5 -2
vt 13.75 1
vt 27.5 1
vt 0 -2
vt 12.68913 -2
vt 28.70553 -2
vt 12.68913 1
vt 28.70553 1
vt 37.11134 -2
vt 37.11134 1
vt 33.75 -2
vt 45 -2
vt 22.5 -2
vt 6.166306 -2
vt 6.166306 1
vt 17.31531 -2
vt 17.31531 1
vt 11.25 -2
vt 28.46432 -2
vt 28.46432 1
vt 39.61333 -2
vt 39.61333 1
vt 41.25 -2
vt 55 -2
vt 41.25 1
vt 55 1
vt 10.75 -2
vt 10.75 1
vt 4.472139 1
vt 4.472139 -2
vt 2.000008 -2
vt 38.875 -2
vt 38.875 1
vt 2.010468 -2
vt 2.010468 1
vt 31.46642 -2
vt 31.46642 1
vt 8.990461 1
vt 8.990461 -2
vt 0 -6
vt 4.499992 -5.99999
vt 4.499992 1
vt 4.499992 -6.013474
vt 0 -6.013474
vt 4.499992 -6
vt 0 -5.99999

vn 0 1 0
vn 0 -1 0
vn -1 0 0
vn 0.9761871 0 -0.2169305
vn 0.9718501 0 -0.2356
vn 0 0 1
vn 0.5199469 0 -0.8541986
vn 0 0 -1
vn 1 0 0
vn 0.8944265 0 0.447215

usemtl piedras_de_suelo3
f 4/4/1 3/3/1 2/2/1 1/1/1
f 3/3/1 6/6/1 5/5/1 2/2/1
f 8/8/1 7/7/1 3/3/1 4/4/1
f 7/7/1 9/9/1 6/6/1 3/3/1
f 13/11/2 12/10/2 11/4/2 10/1/2
f 15/13/2 14/12/2 12/10/2 13/11/2
f 12/10/2 17/14/2 16/8/2 11/4/2
f 14/12/2 18/15/2 17/14/2 12/10/2
f 22/17/1 21/10/1 20/11/1 19/16/1
f 21/10/1 4/4/1 1/1/1 20/11/1
f 24/15/1 23/14/1 21/10/1 22/17/1
f 23/14/1 8/8/1 4/4/1 21/10/1
f 28/2/2 27/3/2 26/19/2 25/18/2
f 10/1/2 11/4/2 27/3/2 28/2/2
f 27/3/2 30/7/2 29/9/2 26/19/2
f 11/4/2 16/8/2 30/7/2 27/3/2
f 33/22/1 32/21/1 31/20/1 34/23/1
f 32/21/1 36/25/1 35/24/1 31/20/1
f 40/27/2 39/26/2 38/22/2 37/23/2
f 42/29/2 41/28/2 39/26/2 40/27/2
f 45/28/1 44/26/1 43/27/1 46/30/1
f 44/26/1 33/22/1 34/23/1 43/27/1
f 50/20/2 49/21/2 48/25/2 47/31/2
f 37/23/2 38/22/2 49/21/2 50/20/2
f 51/34/1 52/24/1 35/33/1 36/32/1
f 53/33/2 54/35/2 41/25/2 42/24/2
f 34/23/1 31/20/1 55/36/1 56/37/1
f 31/20/1 35/24/1 57/38/1 55/36/1
f 59/39/2 40/27/2 37/23/2 58/37/2
f 60/40/2 42/29/2 40/27/2 59/39/2
f 46/30/1 43/27/1 61/39/1 62/41/1
f 43/27/1 34/23/1 56/37/1 61/39/1
f 64/36/2 50/20/2 47/31/2 63/42/2
f 58/37/2 37/23/2 50/20/2 64/36/2
f 66/44/1 65/43/1 7/7/1 8/8/1
f 56/37/1 55/36/1 65/43/1 66/44/1
f 65/43/1 67/45/1 9/9/1 7/7/1
f 55/36/1 57/38/1 67/45/1 65/43/1
f 17/14/2 69/46/2 68/44/2 16/8/2
f 69/46/2 59/39/2 58/37/2 68/44/2
f 18/15/2 70/47/2 69/46/2 17/14/2
f 70/47/2 60/40/2 59/39/2 69/46/2
f 72/48/1 71/46/1 23/14/1 24/15/1
f 62/41/1 61/39/1 71/46/1 72/48/1
f 71/46/1 66/44/1 8/8/1 23/14/1
f 61/39/1 56/37/1 66/44/1 71/46/1
f 30/7/2 74/43/2 73/49/2 29/9/2
f 74/43/2 64/36/2 63/42/2 73/49/2
f 16/8/2 68/44/2 74/43/2 30/7/2
f 68/44/2 58/37/2 64/36/2 74/43/2
f 76/53/3 75/52/3 26/51/3 29/50/3
f 75/52/3 77/55/3 25/54/3 26/51/3
f 14/59/4 79/58/4 78/57/4 18/56/4
f 15/61/5 80/60/5 79/58/5 14/59/5
f 82/65/6 81/64/6 39/63/6 41/62/6
f 81/64/6 83/67/6 38/66/6 39/63/6
f 13/69/7 84/68/7 80/55/7 15/54/7
f 10/71/8 85/70/8 84/68/8 13/69/8
f 83/67/6 86/73/6 49/72/6 38/66/6
f 86/73/6 87/55/6 48/54/6 49/72/6
f 28/75/8 88/74/8 85/70/8 10/71/8
f 25/77/8 77/76/8 88/74/8 28/75/8
f 87/81/3 89/80/3 47/79/3 48/78/3
f 53/83/9 91/82/9 90/55/9 54/54/9
f 41/54/10 54/85/10 90/84/10 82/55/10
f 42/87/8 92/86/8 91/55/8 53/54/8
f 89/80/3 93/89/3 63/88/3 47/79/3
f 60/91/9 94/90/9 92/55/9 42/54/9
f 93/89/3 95/93/3 73/92/3 63/88/3
f 95/93/3 76/53/3 29/50/3 73/92/3
f 70/95/9 96/94/9 94/90/9 60/91/9
f 18/56/9 78/57/9 96/94/9 70/95/9
f 98/97/3 97/96/3 75/52/3 76/53/3
f 24/99/3 22/98/3 97/96/3 98/97/3
f 97/96/3 99/100/3 77/55/3 75/52/3
f 22/98/3 19/25/3 99/100/3 97/96/3
f 79/58/4 101/102/4 100/101/4 78/57/4
f 101/102/4 6/104/4 9/103/4 100/101/4
f 80/60/5 102/105/5 101/102/5 79/58/5
f 102/105/5 5/106/5 6/104/5 101/102/5
f 104/108/6 103/107/6 81/64/6 82/65/6
f 36/28/6 32/26/6 103/107/6 104/108/6
f 103/107/6 105/109/6 83/67/6 81/64/6
f 32/26/6 33/22/6 105/109/6 103/107/6
f 84/68/7 106/110/7 102/100/7 80/55/7
f 106/110/7 2/111/7 5/25/7 102/100/7
f 85/70/8 107/112/8 106/110/8 84/68/8
f 107/112/8 1/113/8 2/111/8 106/110/8
f 105/109/6 108/114/6 86/73/6 83/67/6
f 33/22/6 44/21/6 108/114/6 105/109/6
f 108/114/6 109/100/6 87/55/6 86/73/6
f 44/21/6 45/25/6 109/100/6 108/114/6
f 88/74/8 110/115/8 107/112/8 85/70/8
f 110/115/8 20/116/8 1/113/8 107/112/8
f 77/76/8 99/117/8 110/115/8 88/74/8
f 99/117/8 19/118/8 20/116/8 110/115/8
f 109/120/3 111/119/3 89/80/3 87/81/3
f 45/122/3 46/121/3 111/119/3 109/120/3
f 91/82/9 113/123/9 112/100/9 90/55/9
f 113/123/9 52/124/9 51/25/9 112/100/9
f 112/126/10 51/125/10 36/25/10 104/100/10
f 90/84/10 112/126/10 104/100/10 82/55/10
f 92/86/8 114/127/8 113/100/8 91/55/8
f 114/127/8 35/32/8 52/25/8 113/100/8
f 111/119/3 115/128/3 93/89/3 89/80/3
f 46/121/3 62/129/3 115/128/3 111/119/3
f 94/90/9 116/130/9 114/100/9 92/55/9
f 116/130/9 57/131/9 35/25/9 114/100/9
f 115/128/3 117/132/3 95/93/3 93/89/3
f 62/129/3 72/133/3 117/132/3 115/128/3
f 117/132/3 98/97/3 76/53/3 95/93/3
f 72/133/3 24/99/3 98/97/3 117/132/3
f 118/135/9 67/134/9 57/131/9 116/130/9
f 78/57/9 100/101/9 118/135/9 96/94/9
f 100/101/9 9/103/9 67/134/9 118/135/9
f 119/137/8 120/138/8 116/25/8 94/136/8
f 120/25/2 121/140/2 118/139/2 116/138/2
f 121/25/6 122/142/6 96/141/6 118/138/6
f 122/139/1 119/138/1 94/25/1 96/140/1

