# ProBuilder 6.0.9
# https://unity3d.com/unity/features/worldbuilding/probuilder
# 25/09/2026 6:50:48 p. m.

mtllib ./casa_curva_a.mtl
o casa curva a

g Bridge (24)
v -75.30898 -21 156.4492
v -79.30898 -21 156.4492
v -79.30898 -21 153.4472
v -75.30898 -21 153.4472
v -75.30898 -27 152.9482
v -79.30898 -27 152.9482
v -79.30898 -27 156.9482
v -75.30898 -27 156.9482
v -83.80899 -27 160.9482
v -82.30899 -27 155.9482
v -82.30899 -26 155.9482
v -83.80899 -26 160.9482
v -69.30898 -27 152.9482
v -69.30898 -27 156.9482
v -69.30898 -26 156.9482
v -69.30898 -26 152.9482
v -79.30898 -26 156.9482
v -75.30898 -26 156.9482
v -75.30898 -26 152.9482
v -79.30898 -26 152.9482
v -82.30899 -25.69339 155.9482
v -83.80899 -25.69339 160.9482
v -69.30898 -25.69339 156.9482
v -69.30898 -25.69339 152.9482
v -79.30898 -25.69339 156.9482
v -75.30898 -25.69339 156.9482
v -75.30898 -25.69339 152.9482
v -79.30898 -25.69339 152.9482
v -74.30898 -21 153.4472
v -74.30898 -21 156.4492
v -74.30898 -27 156.9482
v -74.30898 -27 152.9482
v -74.30898 -26 156.9482
v -74.30898 -26 152.9482
v -74.30898 -25.69339 156.9482
v -74.30898 -25.69339 152.9482
v -70.30898 -21 153.4472
v -69.80798 -21 153.4472
v -69.80798 -21 156.4492
v -70.30898 -21 156.4492
v -70.30898 -27 156.9482
v -70.30898 -27 152.9482
v -70.30898 -26 156.9482
v -70.30898 -26 152.9482
v -70.30898 -25.69339 156.9482
v -70.30898 -25.69339 152.9482
v -73.80898 -21 153.4472
v -73.80898 -21 156.4492
v -73.80898 -27 156.9482
v -73.80898 -27 152.9482
v -73.80898 -26 156.9482
v -73.80898 -26 152.9482
v -73.80898 -26 158.4483
v -74.30898 -26 158.4483
v -74.30898 -25.69339 158.4483
v -73.80898 -25.69339 158.4483
v -73.80898 -25.69339 152.9482
v -70.81557 -21 153.4472
v -70.81557 -21 156.4492
v -70.81557 -27 156.9482
v -70.81557 -27 152.9482
v -70.81557 -26 156.9482
v -70.81557 -26 152.9482
v -70.30898 -26 158.4483
v -70.81557 -26 158.4483
v -70.81557 -25.69339 158.4483
v -70.30898 -25.69339 158.4483
v -70.81557 -25.69339 152.9482
v -74.30898 -25.69339 158.1982
v -74.30898 -26 158.1982
v -70.30898 -26 158.1982
v -70.30898 -25.69339 158.1982
v -73.80898 -26 158.1982
v -74.30898 -27.00001 158.1982
v -74.30898 -27.00001 158.4483
v -73.80898 -27.00001 158.4483
v -73.80898 -27.00001 158.1982
v -73.80898 -25.69339 156.9482
v -73.80898 -25.69339 158.1982
v -70.81557 -26 158.1982
v -70.81557 -27.00001 158.1982
v -70.81557 -27.00001 158.4483
v -70.30898 -27.00001 158.4483
v -70.30898 -27.00001 158.1982
v -70.81557 -25.69339 156.9482
v -70.81557 -25.69339 158.1982
v -81.80899 -27 154.4482
v -82.55899 -27 159.9482
v -82.49157 -21 159.4538
v -83.30028 -21 160.1519
v -82.27025 -21 155.9594
v -81.87641 -21 154.9427
v -82.55899 -26 159.9482
v -81.80899 -26 154.4482
v -82.55899 -25.69339 159.9482
v -81.80899 -25.69339 154.4482
v -80.93399 -27 158.4482
v -80.55899 -27 153.6982
v -80.59827 -21 154.1957
v -80.89471 -21 157.9508
v -80.93399 -26 158.4482
v -81.14851 -27 158.2387
v -82.77351 -27 159.7387
v -82.77351 -26 159.7387
v -81.14851 -26 158.2387
v -80.55899 -26 153.6982
v -80.93399 -25.69339 158.4482
v -82.77351 -25.69339 159.7387
v -81.14851 -25.69339 158.2387
v -80.55899 -25.69339 153.6982
v -82.30899 -23.84669 155.9482
v -83.80899 -23.84669 160.9482
v -82.30899 -21.499 155.9482
v -83.80899 -21.499 160.9482
v -69.30898 -23.84669 156.9482
v -69.30898 -23.84669 152.9482
v -69.30898 -21.499 156.9482
v -69.30898 -21.499 152.9482
v -75.30898 -25.69339 156.6746
v -79.30898 -25.69339 156.6746
v -79.30898 -23.84669 156.6746
v -75.30898 -23.84669 156.6746
v -79.30898 -23.84669 156.9482
v -79.30898 -21.499 156.9482
v -75.30898 -21.499 156.9482
v -75.30898 -23.84669 156.9482
v -75.30898 -23.84669 152.9482
v -79.30898 -23.84669 152.9482
v -75.30898 -21.499 152.9482
v -79.30898 -21.499 152.9482
v -74.30898 -23.84669 156.9482
v -74.30898 -21.499 156.9482
v -74.30898 -23.84669 152.9482
v -74.30898 -21.499 152.9482
v -70.30898 -23.84669 156.9482
v -70.30898 -21.499 156.9482
v -70.30898 -23.84669 152.9482
v -70.30898 -21.499 152.9482
v -73.80898 -23.84669 156.9482
v -73.80898 -21.499 156.9482
v -73.80898 -23.84669 152.9482
v -73.80898 -21.499 152.9482
v -70.81557 -23.84669 156.9482
v -70.81557 -21.499 156.9482
v -70.81557 -23.84669 152.9482
v -70.81557 -21.499 152.9482
v -82.55899 -23.84669 159.9482
v -82.55899 -21.499 159.9482
v -81.80899 -23.84669 154.4482
v -81.80899 -21.499 154.4482
v -80.93399 -23.84669 158.4482
v -80.93399 -21.499 158.4482
v -82.77351 -23.84669 159.7387
v -81.14851 -23.84669 158.2387
v -80.55899 -21.499 153.6982
v -80.55899 -23.84669 153.6982

vt 6 0.501
vt 10 0.501
vt 10 -2.501
vt 6 -2.501
vt 4 -3
vt 0 -3
vt 0 1
vt 4 1
vt 5.220153 -2.153305
vt 0 -2.153305
vt 0 -1.153305
vt 5.220153 -1.153305
vt 4 -2.153305
vt 4 -1.153305
vt 6 -2.153305
vt 6 -1.153305
vt 10 -1.153305
vt 10 -2.153305
vt 0 -0.8466949
vt 5.220153 -0.8466949
vt 4 -0.8466949
vt 6 -0.8466949
vt 10 -0.8466949
vt 5 -2.501
vt 5 0.501
vt 5 1
vt 5 -3
vt 5 -2.153305
vt 5 -1.153305
vt 5 -0.8466949
vt 1 -2.501
vt 0.499 -2.501
vt 0.499 0.501
vt 1 0.501
vt 9 1
vt 10 1
vt 10 -3
vt 9 -3
vt 9 -2.153305
vt 9 -1.153305
vt 1 -1.153305
vt 1 -2.153305
vt 9 -0.8466949
vt 1 -0.8466949
vt 4.5 -2.501
vt 4.5 0.501
vt 5.5 1
vt 5.5 -3
vt 5.5 -2.153305
vt 5.5 -1.153305
vt 4.5 -1.153305
vt 4.5 -2.153305
vt 0.5 0.6933899
vt 0 0.6933899
vt 0.5 1
vt 4.5 -0.8466949
vt 1.506584 -2.501
vt 1.506584 0.501
vt 8.493416 1
vt 8.493416 -3
vt 8.493416 -2.153305
vt 8.493416 -1.153305
vt 1.506584 -1.153305
vt 1.506584 -2.153305
vt 4 0.6933899
vt 3.493416 0.6933899
vt 3.493416 1
vt 1.506584 -0.8466949
vt 1.25 1
vt 1.25 0.6933899
vt 1.500015 1
vt 1.500015 0.6933899
vt 0.2500153 0.6933899
vt 0.2500153 1
vt 0 -0.5000153
vt 0 0.7499847
vt 0.5 0.7499847
vt 0.5 -0.5000153
vt 4 -0.5000153
vt 3.5 -0.5000153
vt 3.5 0.7499847
vt 4 0.7499847
vt 3.5 1
vt 3.493416 0.7499847
vt 3.493416 -0.5000153
vt 0.5065842 1
vt 0.5065842 0.7499847
vt 0.5065842 -0.5000153
vt 0 -9.536743E-06
vt 0.2500153 -9.536743E-06
vt 0.5065842 -9.536743E-06
vt 0.5 -9.536743E-06
vt 2 -5.5
vt 1.5 -4
vt 1.25 0
vt 3.182586 -0.4944243
vt 3.991298 0.203688
vt 2.961266 -3.988804
vt 2.567429 -5.005576
vt 1.599782 -2.153305
vt 1.599782 -1.153305
vt 2.837623 -1.153305
vt 4.242268 -1.153305
vt 4.242268 -2.153305
vt 2.837623 -2.153305
vt 1.599782 -0.8466949
vt 2.837623 -0.8466949
vt 4.242268 -0.8466949
vt 2.875 -1.5
vt 3.250004 -6.25
vt 4.500008 -3
vt 4.500008 -7
vt 1.28928 -5.752548
vt 1.585735 -1.997452
vt 0 -6.501
vt 0 -3.499
vt 6.019978 -2.153305
vt 3.809877 -2.153305
vt 3.809877 -1.153305
vt 6.019978 -1.153305
vt 2.211475 0
vt 2.211475 1
vt 1.418812 -1.153305
vt 1.418812 -2.153305
vt 3.809877 -0.8466949
vt 6.019978 -0.8466949
vt 2.211476 0.6933899
vt 1.418812 -0.8466949
vt 5.220153 1
vt 0 -1.846695
vt 0 0.501
vt 5.220153 0.501
vt 5.220153 -1.846695
vt 4 0.501
vt 4 -1.846695
vt 6 1
vt 6 -1.846695
vt 10 -1.846695
vt 5 -1.846695
vt 9 -1.846695
vt 9 0.501
vt 1 1
vt 1 -1.846695
vt 5.5 -0.8466949
vt 5.5 0.501
vt 5.5 -1.846695
vt 4.5 1
vt 4.5 -1.846695
vt 8.493416 -0.8466949
vt 8.493416 -1.846695
vt 8.493416 0.501
vt 1.506584 1
vt 1.506584 -1.846695
vt 1.599782 1
vt 1.599546 0.501
vt 1.599546 -1.846695
vt 2.837623 1
vt 4.242268 0.9999999
vt 2.837624 -1.846695
vt 2.837624 0.501
vt 4.242268 0.501
vt 4.242268 -1.846695
vt 3.809877 1
vt 6.019978 1
vt 3.809932 -1.846695
vt 3.809932 0.501
vt 6.020322 0.501
vt 6.020322 -1.846695
vt 2.211475 -0.8466949
vt 1.418815 0.501
vt 1.418815 -1.846695
vt 1.418814 1
vt 0 0.9999999
vt 1.625 1
vt 0.2145157 -0.7095337
vt 1.839516 0.7904663
vt 0.2998688 1
vt 0.2998688 -0.8466949
vt 0.2145157 1
vt 1.839516 -0.5
vt 0 0.7904663
vt 1.625 -0.7095337
vt 0.2998688 0.6933899
vt 0.2998691 0
vt 0 0.7263794
vt 4 0.7263794
vt 0.2736206 -0.8466949
vt 0.2736206 1
vt 6.713078 -1.824259
vt 2.395908 -1.824259
vt 7.607766 -2.408582
vt 2.394279 -2.27136
vt -8.811419 3.362276
vt -9.879771 3.362276
vt -9.185536 2.763913
vt -10.7852 2.796935
vt -6.510792 3.57621
vt -8.703741 3.576211
vt -6.880339 2.975014
vt -9.09171 2.987005
vt -4.318852 3.615827
vt -6.502702 3.615828
vt -4.661949 2.999154
vt -6.873251 3.01568
vt -1 1.059953
vt -5 1.059953
vt -1 0.3542605
vt -5 0.3542605
vt 0 1.059953
vt 0 0.3542605
vt 0.5 1.059953
vt 0.5 0.3542605
vt 3.493416 1.059953
vt 3.493416 0.3542605
vt 4 1.059953
vt 4 0.3542605
vt 4.501 1.059953
vt 5 0.3542605
vt -1.414921 -2.001
vt -1.414921 1.001
vt -2.120613 -2.5
vt -2.120613 1.5
vt -4 0.3528464
vt -4.501 0.3528464
vt -4 -0.3528464
vt -5 -0.3528464
vt -3.493416 0.3528464
vt -3.493416 -0.3528464
vt -0.5 0.3528464
vt -0.5 -0.3528464
vt 0 0.3528464
vt 0 -0.3528464
vt 1 0.3528464
vt 1 -0.3528464
vt 5 0.3528464
vt 5 -0.3528464
vt 4.810351 -0.7635096
vt 3.319571 -0.7635097
vt 4.526638 -1.409659
vt 3.069046 -1.423036
vt 6.278404 -0.6676362
vt 4.797988 -0.6676362
vt 5.970723 -1.302722
vt 4.513082 -1.313125
vt 3.35223 1.911055
vt 2.261848 1.911055
vt 3.355783 1.410441
vt 1.776449 1.404379

vn 0 1 0
vn 0 -1 0
vn -0.9578263 0 -0.2873479
vn 1 0 0
vn 0 0 1
vn 0 0 -1
vn -1 0 0
vn 0.6246951 0 0.7808688
vn -0.9486833 0 -0.3162278
vn 0.6782784 0 0.734805
vn -0.5144947 0 -0.8574936
vn -0.698751 0 0.715365
vn 0.698751 0 -0.715365
vn -0.8293173 0.5203062 -0.2037507
vn -0.8920156 0.3004275 -0.2450824
vn -0.954714 0.08054882 -0.2864142
vn 0.5449375 0.5518527 0.63127
vn 0.5392073 0.5360792 0.6490582
vn 0.5334771 0.5203058 0.6668464
vn 0.5688825 0.5577466 0.6043935
vn 0.5705533 0.5473281 0.6121515
vn 0.5722241 0.5369095 0.6199095
vn 0.556367 0.587561 0.587561
vn 0.5587384 0.5746933 0.5977163
vn 0.5611096 0.5618257 0.6078717
vn 0 0.7071068 0.7071068
vn 0.7071068 0.7071068 0
vn 0 0.7071068 -0.7071068
vn -0.3877198 0.6352981 -0.6678845
vn -0.3891423 0.6431217 -0.6594148
vn -0.3905647 0.6509452 -0.6509452
vn -0.3964501 0.6185821 -0.6783683
vn -0.3976989 0.625017 -0.6716406
vn -0.3989477 0.631452 -0.6649128
vn -0.9294847 0.08024172 -0.3600271
vn -0.931157 0.131148 -0.3354851
vn -0.9328294 0.1820543 -0.3109431

usemtl brick_taller_4
f 2/2/1 1/1/1 4/4/1 3/3/1
f 5/5/2 8/8/2 7/7/2 6/6/2
f 12/12/3 11/11/3 10/10/3 9/9/3
f 13/13/4 16/14/4 15/11/4 14/10/4
f 18/14/5 17/11/5 7/10/5 8/13/5
f 6/18/6 20/17/6 19/16/6 5/15/6
f 22/20/3 21/19/3 11/11/3 12/12/3
f 16/14/4 24/21/4 23/19/4 15/11/4
f 26/21/5 25/19/5 17/11/5 18/14/5
f 20/17/6 28/23/6 27/22/6 19/16/6
f 1/1/1 30/25/1 29/24/1 4/4/1
f 32/27/2 31/26/2 8/8/2 5/5/2
f 33/29/5 18/14/5 8/13/5 31/28/5
f 5/15/6 19/16/6 34/29/6 32/28/6
f 35/30/5 26/21/5 18/14/5 33/29/5
f 19/16/6 27/22/6 36/30/6 34/29/6
f 40/34/1 39/33/1 38/32/1 37/31/1
f 13/37/2 14/36/2 41/35/2 42/38/2
f 15/17/5 43/40/5 41/39/5 14/18/5
f 42/42/6 44/41/6 16/11/6 13/10/6
f 23/23/5 45/43/5 43/40/5 15/17/5
f 44/41/6 46/44/6 24/19/6 16/11/6
f 30/25/1 48/46/1 47/45/1 29/24/1
f 50/48/2 49/47/2 31/26/2 32/27/2
f 51/50/5 33/29/5 31/28/5 49/49/5
f 32/28/6 34/29/6 52/51/6 50/52/6
f 56/55/5 55/7/5 54/54/5 53/53/5
f 34/29/6 36/30/6 57/56/6 52/51/6
f 48/46/1 59/58/1 58/57/1 47/45/1
f 59/58/1 40/34/1 37/31/1 58/57/1
f 61/60/2 60/59/2 49/47/2 50/48/2
f 42/38/2 41/35/2 60/59/2 61/60/2
f 43/40/5 62/62/5 60/61/5 41/39/5
f 62/62/5 51/50/5 49/49/5 60/61/5
f 61/64/6 63/63/6 44/41/6 42/42/6
f 50/52/6 52/51/6 63/63/6 61/64/6
f 67/8/5 66/67/5 65/66/5 64/65/5
f 66/67/5 56/55/5 53/53/5 65/66/5
f 63/63/6 68/68/6 46/44/6 44/41/6
f 52/51/6 57/56/6 68/68/6 63/63/6
f 69/69/7 35/7/7 33/54/7 70/70/7
f 55/71/7 69/69/7 70/70/7 54/72/7
f 71/73/4 43/72/4 45/71/4 72/74/4
f 64/54/4 71/73/4 72/74/4 67/7/4
f 51/78/2 73/77/2 70/76/2 33/75/2
f 77/77/2 76/55/2 75/7/2 74/76/2
f 69/82/1 79/81/1 78/80/1 35/79/1
f 55/8/1 56/83/1 79/81/1 69/82/1
f 62/85/2 80/84/2 73/77/2 51/78/2
f 80/84/2 65/67/2 53/55/2 73/77/2
f 43/79/2 71/82/2 80/84/2 62/85/2
f 84/87/2 83/86/2 82/7/2 81/76/2
f 79/81/1 86/87/1 85/88/1 78/80/1
f 56/83/1 66/86/1 86/87/1 79/81/1
f 86/87/1 72/76/1 45/75/1 85/88/1
f 66/86/1 67/7/1 72/76/1 86/87/1
f 81/89/7 82/90/7 65/74/7 80/7/7
f 82/89/5 83/91/5 64/86/5 65/7/5
f 83/89/4 84/90/4 71/74/4 64/7/4
f 84/89/6 81/91/6 80/86/6 71/7/6
f 74/89/7 75/90/7 54/74/7 70/7/7
f 75/89/5 76/92/5 53/55/5 54/7/5
f 76/89/4 77/90/4 73/74/4 53/7/4
f 77/89/6 74/92/6 70/55/6 73/7/6
f 9/7/2 10/94/2 87/93/2 88/95/2
f 89/96/1 92/99/1 91/98/1 90/97/1
f 93/101/8 12/11/8 9/10/8 88/100/8
f 10/104/9 11/103/9 94/102/9 87/105/9
f 95/106/8 22/19/8 12/11/8 93/101/8
f 11/103/9 21/108/9 96/107/9 94/102/9
f 88/95/2 87/93/2 98/110/2 97/109/2
f 6/112/2 7/111/2 97/109/2 98/110/2
f 100/114/1 99/113/1 92/99/1 89/96/1
f 100/114/1 2/116/1 3/115/1 99/113/1
f 17/120/10 101/119/10 97/118/10 7/117/10
f 105/122/10 104/7/10 103/89/10 102/121/10
f 98/124/11 106/123/11 20/11/11 6/10/11
f 87/105/11 94/102/11 106/123/11 98/124/11
f 25/126/10 107/125/10 101/119/10 17/120/10
f 109/122/10 108/7/10 104/54/10 105/127/10
f 106/123/11 110/128/11 28/19/11 20/11/11
f 94/102/11 96/107/11 110/128/11 106/123/11
f 112/129/3 111/7/3 21/19/3 22/20/3
f 114/132/3 113/131/3 111/130/3 112/133/3
f 24/21/4 116/8/4 115/7/4 23/19/4
f 116/135/4 118/134/4 117/131/4 115/130/4
f 122/8/5 121/7/5 120/19/5 119/21/5
f 125/134/5 124/131/5 123/130/5 126/135/5
f 28/23/6 128/36/6 127/136/6 27/22/6
f 128/138/6 130/2/6 129/1/6 127/137/6
f 131/26/5 126/8/5 26/21/5 35/30/5
f 132/25/5 125/134/5 126/135/5 131/139/5
f 27/22/6 127/136/6 133/26/6 36/30/6
f 127/137/6 129/1/6 134/25/6 133/139/6
f 115/36/5 135/35/5 45/43/5 23/23/5
f 117/2/5 136/141/5 135/140/5 115/138/5
f 46/44/6 137/142/6 116/7/6 24/19/6
f 137/143/6 138/34/6 118/131/6 116/130/6
f 139/47/5 131/26/5 35/30/5 78/144/5
f 140/145/5 132/25/5 131/139/5 139/146/5
f 36/30/6 133/26/6 141/147/6 57/56/6
f 133/139/6 134/25/6 142/46/6 141/148/6
f 135/35/5 143/59/5 85/149/5 45/43/5
f 136/141/5 144/151/5 143/150/5 135/140/5
f 143/59/5 139/47/5 78/144/5 85/149/5
f 144/151/5 140/145/5 139/146/5 143/150/5
f 68/68/6 145/152/6 137/142/6 46/44/6
f 145/153/6 146/58/6 138/34/6 137/143/6
f 57/56/6 141/147/6 145/152/6 68/68/6
f 141/148/6 142/46/6 146/58/6 145/153/6
f 95/106/8 147/154/8 112/7/8 22/19/8
f 147/156/8 148/155/8 114/131/8 112/130/8
f 111/158/9 149/157/9 96/107/9 21/108/9
f 113/161/9 150/160/9 149/159/9 111/162/9
f 123/164/10 151/163/10 107/125/10 25/126/10
f 124/167/10 152/166/10 151/165/10 123/168/10
f 154/122/10 153/7/10 108/19/10 109/169/10
f 152/166/10 148/155/10 147/156/10 151/165/10
f 128/130/11 156/171/11 155/170/11 130/131/11
f 28/19/11 110/128/11 156/172/11 128/173/11
f 156/171/11 149/159/11 150/160/11 155/170/11
f 110/128/11 96/107/11 149/157/11 156/172/11
f 102/175/1 103/176/1 88/174/1 97/75/1
f 154/7/12 109/19/12 107/178/12 151/177/12
f 108/178/13 153/177/13 147/7/13 95/19/13
f 153/181/2 154/182/2 151/180/2 147/179/2
f 104/183/13 108/177/13 95/7/13 93/54/13
f 109/7/12 105/54/12 101/183/12 107/177/12
f 105/7/12 102/89/12 97/184/12 101/177/12
f 103/184/13 104/177/13 93/7/13 88/89/13
f 119/185/1 120/186/1 25/8/1 26/7/1
f 120/187/4 121/188/4 123/7/4 25/19/4
f 122/7/7 119/19/7 26/187/7 126/188/7
f 121/185/2 122/186/2 126/8/2 123/7/2
f 113/192/16 114/191/15 90/189/14 91/190/15
f 114/196/19 148/195/18 89/193/17 90/194/18
f 148/200/22 152/199/21 100/197/20 89/198/21
f 152/204/25 124/203/24 2/201/23 100/202/24
f 124/208/26 125/207/26 1/205/26 2/206/26
f 125/207/26 132/210/26 30/209/26 1/205/26
f 132/210/26 140/212/26 48/211/26 30/209/26
f 140/212/26 144/214/26 59/213/26 48/211/26
f 144/214/26 136/216/26 40/215/26 59/213/26
f 136/216/26 117/218/26 39/217/26 40/215/26
f 117/222/27 118/221/27 38/219/27 39/220/27
f 118/226/28 138/225/28 37/223/28 38/224/28
f 138/225/28 146/228/28 58/227/28 37/223/28
f 146/228/28 142/230/28 47/229/28 58/227/28
f 142/230/28 134/232/28 29/231/28 47/229/28
f 134/232/28 129/234/28 4/233/28 29/231/28
f 129/234/28 130/236/28 3/235/28 4/233/28
f 130/240/31 155/239/30 99/237/29 3/238/30
f 155/244/34 150/243/33 92/241/32 99/242/33
f 150/248/37 113/247/36 91/245/35 92/246/36

